{"title":"The.Monkey.King.the.Legend.Begins.2016.HC.HDRip.x264.AAC-ViZNU [","uid":14309781,"size":479378669,"categoryP":"video","categoryS":"movies","magnet":"?xt=urn:btih:f02230509d1d4b9b129c1c76c5c3ef7fdc652fd7&amp;dn=The.Monkey.King.the.Legend.Begins.2016.HC.HDRip.x264.AAC-ViZNU+%5B&amp;tr=udp%3A%2F%2Ftracker.leechers-paradise.org%3A6969&amp;tr=udp%3A%2F%2Fzer0day.ch%3A1337&amp;tr=udp%3A%2F%2Fopen.demonii.com%3A1337&amp;tr=udp%3A%2F%2Ftracker.coppersurfer.tk%3A6969&amp;tr=udp%3A%2F%2Fexodus.desync.com%3A6969","seeders":4,"leechers":1,"uploader":"VYTOP2PDL","files":6,"time":1460528326,"description":"The.Monkey.King.the.Legend.Begins.2016.HC.HDRip.x264.AAC-ViZNU\r\n\r\n\r\nGenre: Action, Adventure, Fantasy \nhttp://www.imdb.com/title/tt4591310/\r\n\r\n\r\nFormat                                   : MPEG-4\r\nFile size                                : 451 MiB\r\nDuration                                 : 1h 59mn\r\nOverall bit rate                         : 527 Kbps\r\n\r\nVideo\r\nFormat                                   : AVC\r\nBit rate                                 : 484 Kbps\r\nWidth                                    : 720 pixels\r\nHeight                                   : 304 pixels\r\nDisplay aspect ratio                     : 2.35:1\r\nFrame rate mode                          : Constant\r\nFrame rate                               : 24.000 fps\r\nBit depth                                : 8 bits\r\nStream size                              : 415 MiB (92%)\r\nWriting library                          : x264\r\n\r\nAudio\r\nFormat                                   : AAC\r\nBit rate mode                            : Variable\r\nBit rate                                 : 39.9 Kbps\r\nChannel(s)                               : 2 channels\r\nChannel positions                        : Front: L R\r\nSampling rate                            : 44.1 KHz\r\nStream size                              : 34.2 MiB (8%)\r\nLanguage                                 : Chinese\r\n\r\nSubtitle                                 : Yes Hard-Coded (English)\r\n\r\nScreen Shots: (Click link to view)\r\n \nhttps://ititli.com/XYc \nhttps://ititli.com/XYi \nhttps://ititli.com/XYp \nhttps://ititli.com/XYD \nhttps://ititli.com/XYa \nhttps://ititli.com/XYb \nhttps://ititli.com/XYI\r\n\r\n----------------------------------------------------------------------------------------------------\r\n\r\n\r\nEncoder Notes: Looking For Early Access To Anything You Can Provide WEBDL, DVDScr, DVDR, BluRay,\r\nDirect Audio, Music Releases and Seedboxes. If You Got anything to offer please contact us.\r\n\r\nSupport us by donating BC - 1FgwdzPsd1y25Gea8wP1qni35uGCtmkRCD\r\n\r\nFind us and join us!","torrent":{"xt":"urn:btih:f02230509d1d4b9b129c1c76c5c3ef7fdc652fd7","amp;dn":"The.Monkey.King.the.Legend.Begins.2016.HC.HDRip.x264.AAC-ViZNU+%5B","amp;tr":["udp%3A%2F%2Ftracker.leechers-paradise.org%3A6969","udp%3A%2F%2Fzer0day.ch%3A1337","udp%3A%2F%2Fopen.demonii.com%3A1337","udp%3A%2F%2Ftracker.coppersurfer.tk%3A6969","udp%3A%2F%2Fexodus.desync.com%3A6969"],"infoHash":"f02230509d1d4b9b129c1c76c5c3ef7fdc652fd7","infoHashBuffer":{"type":"Buffer","data":[240,34,48,80,157,29,75,155,18,156,28,118,197,195,239,127,220,101,47,215]},"announce":[],"urlList":[]}}